<?xml version="1.0" standalone="no"?>
<!DOCTYPE svg PUBLIC "-//W3C//DTD SVG 20010904//EN"
 "http://www.w3.org/TR/2001/REC-SVG-20010904/DTD/svg10.dtd">
<svg version="1.0" xmlns="http://www.w3.org/2000/svg"
 width="583.000000pt" height="209.000000pt" viewBox="0 0 583.000000 209.000000"
 preserveAspectRatio="xMidYMid meet">

<g transform="translate(0.000000,209.000000) scale(0.100000,-0.100000)"
fill="#EE5007" stroke="none">
<path d="M648 1858 c-109 -37 -171 -126 -185 -264 l-6 -62 -81 1 c-217 1 -331
-145 -296 -378 13 -91 70 -221 118 -270 32 -33 109 -75 136 -75 23 0 20 -12
-17 -68 -91 -135 -60 -307 71 -401 103 -74 239 -98 346 -62 63 21 65 21 108 4
56 -23 217 -24 267 -1 32 14 37 14 79 -4 38 -17 60 -19 146 -16 90 4 108 8
161 37 73 38 101 63 138 119 60 93 58 215 -8 317 l-35 56 36 15 c80 33 165
153 195 274 21 86 17 216 -7 270 -44 94 -126 147 -250 158 l-79 7 -6 85 c-7
89 -11 103 -47 160 -84 136 -302 161 -430 49 l-34 -30 -27 25 c-14 14 -52 36
-84 50 -69 31 -127 32 -209 4z m596 -126 c27 -9 58 -29 69 -44 61 -81 24 -312
-60 -378 -24 -19 -38 -21 -101 -18 -66 3 -75 6 -105 36 -32 32 -32 33 -32 135
0 96 2 107 33 170 33 66 48 81 107 104 39 15 33 15 89 -5z m-421 -14 c59 -31
108 -146 110 -258 1 -84 -16 -128 -60 -157 -32 -21 -138 -24 -174 -5 -62 33
-107 171 -96 293 5 63 34 114 71 129 31 13 124 12 149 -2z m-386 -347 c50 -36
89 -101 108 -183 19 -80 19 -118 0 -166 -21 -52 -63 -75 -141 -76 -56 -1 -66
2 -94 29 -82 78 -125 259 -82 345 20 40 88 80 138 80 18 0 47 -12 71 -29z
m1179 -11 c70 -27 94 -91 76 -206 -25 -161 -106 -247 -215 -229 -62 11 -97 32
-113 70 -40 97 19 294 106 353 36 24 99 29 146 12z m-448 -285 c21 -13 42 -39
58 -75 15 -30 34 -71 43 -90 17 -36 98 -123 188 -201 89 -77 105 -141 56 -216
-67 -104 -220 -131 -328 -58 -25 17 -41 23 -49 16 -25 -20 -123 -51 -166 -51
-48 0 -119 23 -161 52 -25 16 -28 16 -40 2 -22 -26 -97 -54 -145 -54 -50 0
-137 35 -176 71 -35 33 -52 97 -39 147 14 49 17 53 141 159 91 79 109 100 138
159 18 38 38 80 45 94 7 14 32 35 57 48 42 22 54 23 195 20 127 -3 155 -7 183
-23z"/>
<path d="M800 898 c0 -13 4 -28 8 -33 5 -6 28 -68 51 -140 65 -197 58 -186
110 -183 41 3 45 5 59 43 25 71 112 327 112 332 0 2 -17 3 -37 1 -36 -3 -39
-6 -51 -48 -26 -89 -75 -245 -80 -254 -3 -5 -15 25 -28 65 -12 41 -33 110 -47
154 -24 80 -24 80 -60 83 -33 3 -37 1 -37 -20z"/>
<path d="M2055 1423 c4 -10 52 -151 106 -313 55 -162 108 -320 118 -350 l20
-55 88 -3 89 -3 32 93 c17 51 67 199 112 328 45 129 87 254 95 278 l13 42 -79
0 -78 0 -21 -72 c-12 -40 -41 -138 -65 -218 -23 -80 -53 -180 -65 -222 -13
-43 -26 -78 -30 -78 -4 0 -11 17 -15 37 -3 20 -17 71 -30 112 -13 42 -36 117
-50 166 -15 50 -40 131 -55 180 l-28 90 -82 3 c-76 3 -82 1 -75 -15z"/>
<path d="M3750 1071 l0 -371 80 0 80 0 0 129 0 128 93 6 c107 6 179 36 228 96
49 60 64 163 35 244 -18 51 -41 74 -101 105 -47 25 -60 26 -232 30 l-183 4 0
-371z m313 238 c34 -15 57 -60 57 -109 0 -49 -23 -94 -57 -109 -13 -6 -53 -11
-88 -11 l-65 0 0 120 0 120 65 0 c35 0 75 -5 88 -11z"/>
<path d="M3425 1360 l-50 -18 -5 -54 -5 -53 -42 -3 -43 -3 0 -59 0 -59 43 -3
42 -3 5 -165 c5 -174 10 -192 59 -227 26 -18 116 -28 165 -19 36 7 36 7 36 56
l0 50 -38 0 c-68 0 -77 20 -77 174 l0 131 58 3 57 3 0 59 0 60 -60 0 -60 0 0
75 c0 85 1 85 -85 55z"/>
<path d="M2914 1231 c-38 -10 -102 -48 -127 -76 -43 -48 -61 -107 -62 -200 0
-75 4 -98 24 -138 45 -92 141 -135 277 -123 41 3 90 12 109 20 34 14 35 17 35
66 0 29 -3 50 -7 48 -66 -34 -92 -40 -156 -36 -65 4 -71 6 -103 41 -20 21 -34
47 -34 62 l0 25 170 0 170 0 0 68 c0 140 -82 237 -208 247 -31 2 -71 0 -88 -4z
m124 -116 c35 -29 52 -83 31 -96 -8 -5 -54 -9 -102 -9 -100 0 -112 10 -83 64
35 66 104 84 154 41z"/>
<path d="M4495 1231 c-22 -4 -57 -15 -77 -24 -37 -16 -38 -18 -38 -68 0 -45 2
-50 18 -44 116 49 163 55 212 30 30 -16 47 -53 36 -80 -3 -10 -19 -15 -42 -15
-20 0 -53 -4 -73 -9 -20 -6 -57 -15 -83 -21 -29 -8 -58 -24 -80 -47 -31 -32
-33 -38 -33 -108 0 -64 3 -77 25 -100 67 -73 185 -72 263 2 l27 27 0 -37 0
-37 70 0 70 0 0 188 c0 103 -5 203 -10 223 -11 40 -49 83 -93 105 -33 18 -137
26 -192 15z m155 -332 c0 -43 -5 -55 -29 -80 -24 -23 -38 -29 -75 -29 -48 0
-72 16 -82 55 -14 57 46 96 164 104 20 1 22 -3 22 -50z"/>
<path d="M4880 1226 c0 -2 11 -41 24 -87 13 -46 40 -145 61 -219 20 -74 42
-153 49 -175 l13 -40 78 0 79 0 34 125 c18 69 39 151 45 183 14 64 30 78 35
32 2 -16 21 -99 43 -184 21 -84 39 -155 39 -157 0 -2 36 -4 80 -4 l79 0 21 73
c12 39 30 101 40 137 10 36 33 115 50 175 17 61 33 118 36 128 5 15 -2 17 -63
17 l-68 0 -32 -167 c-18 -93 -35 -185 -39 -205 -7 -45 -20 -49 -27 -10 -9 50
-47 216 -69 300 l-21 82 -68 0 c-79 0 -66 24 -130 -230 -23 -91 -44 -168 -48
-172 -4 -4 -17 41 -29 100 -13 59 -32 151 -44 205 l-21 97 -74 0 c-40 0 -73
-2 -73 -4z"/>
</g>
</svg>
